<svg width="65" height="65" viewBox="0 0 65 65" fill="none" xmlns="http://www.w3.org/2000/svg">
<path d="M52.5411 25.3905L50.6778 23.5272L51.9778 22.1568C52.3262 21.8083 52.5005 21.4174 52.5005 20.9841C52.5005 20.5508 52.3262 20.1598 51.9778 19.8114L45.188 13.0216C44.8395 12.6731 44.4486 12.4989 44.0153 12.4989C43.5819 12.4989 43.191 12.6731 42.8426 13.0216L41.4721 14.3216L39.5411 12.3905L41.0524 10.8116C41.8468 10.0171 42.8209 9.63075 43.9746 9.65242C45.1266 9.67589 46.0998 10.0848 46.8942 10.8793L54.1201 18.1051C54.9145 18.8996 55.3117 19.8619 55.3117 20.9922C55.3117 22.1225 54.9145 23.0848 54.1201 23.8793L52.5411 25.3905ZM23.9465 54.0528C23.1521 54.8473 22.1897 55.2445 21.0594 55.2445C19.9292 55.2445 18.9668 54.8473 18.1724 54.0528L11.1578 47.0382C10.3272 46.2077 9.91194 45.1749 9.91194 43.9399C9.91194 42.7049 10.3272 41.673 11.1578 40.8443L12.4578 39.5416L14.3888 41.4726L13.0726 42.7753C12.7259 43.1238 12.5526 43.5147 12.5526 43.948C12.5526 44.3814 12.7259 44.7723 13.0726 45.1207L19.8786 51.9268C20.2271 52.2735 20.618 52.4468 21.0513 52.4468C21.4846 52.4468 21.8755 52.2735 22.224 51.9268L23.524 50.6105L25.4578 52.5416L23.9465 54.0528ZM50.3067 35.6253L53.3861 32.546C53.7328 32.1993 53.9061 31.8003 53.9061 31.3489C53.9061 30.8975 53.7328 30.4985 53.3861 30.1518L34.8476 11.6133C34.5009 11.2666 34.1019 11.0933 33.6505 11.0933C33.1991 11.0933 32.8001 11.2666 32.4534 11.6133L29.374 14.6926C29.0274 15.0393 28.854 15.4302 28.854 15.8653C28.854 16.2987 29.0274 16.6887 29.374 17.0353L47.964 35.6253C48.3107 35.972 48.7007 36.1453 49.134 36.1453C49.5674 36.1453 49.9583 35.972 50.3067 35.6253ZM32.5455 53.3866L35.6249 50.291C35.9715 49.9443 36.1449 49.5543 36.1449 49.121C36.1449 48.6876 35.9715 48.2967 35.6249 47.9482L17.0511 29.3745C16.7044 29.0278 16.3135 28.8545 15.8784 28.8545C15.4451 28.8545 15.0551 29.0278 14.7084 29.3745L11.6128 32.4539C11.2661 32.8005 11.0928 33.1996 11.0928 33.651C11.0928 34.1023 11.2661 34.5014 11.6128 34.848L30.1513 53.3866C30.498 53.7332 30.897 53.9066 31.3484 53.9066C31.7998 53.9066 32.1988 53.7332 32.5455 53.3866ZM30.6307 39.1028L39.1186 30.6312L34.3682 25.8807L25.8965 34.3687L30.6307 39.1028ZM34.4278 55.3014C33.5972 56.1319 32.5708 56.5472 31.3484 56.5472C30.126 56.5472 29.0996 56.1319 28.269 55.3014L9.69798 36.7303C8.86743 35.8998 8.45215 34.8733 8.45215 33.651C8.45215 32.4286 8.86743 31.4021 9.69798 30.5716L12.7746 27.4435C13.6052 26.6129 14.638 26.1976 15.873 26.1976C17.108 26.1976 18.1399 26.6129 18.9686 27.4435L23.9628 32.4376L32.4534 23.947L27.4565 18.9691C26.626 18.1385 26.2107 17.1039 26.2107 15.8653C26.2107 14.6249 26.626 13.5903 27.4565 12.7616L30.5874 9.63075C31.4179 8.8002 32.4507 8.38492 33.6857 8.38492C34.9207 8.38492 35.9526 8.8002 36.7813 9.63075L55.3686 28.218C56.1992 29.0486 56.6144 30.0814 56.6144 31.3164C56.6144 32.5514 56.1992 33.5833 55.3686 34.412L52.2378 37.5428C51.4072 38.3734 50.3726 38.7887 49.134 38.7887C47.8954 38.7887 46.8608 38.3734 46.0303 37.5428L41.0524 32.546L32.5617 41.0366L37.5559 46.0308C38.3864 46.8613 38.8017 47.8932 38.8017 49.1264C38.8017 50.3596 38.3864 51.3923 37.5559 52.2247L34.4278 55.3014Z" fill="white"/>
</svg>
