<svg width="39" height="39" viewBox="0 0 39 39" fill="none" xmlns="http://www.w3.org/2000/svg">
<circle cx="19.5" cy="19.5" r="19.5" fill="#D9D9D9"/>
<path d="M27.4062 9H14.125C13.2962 9 12.5013 9.32924 11.9153 9.91529C11.3292 10.5013 11 11.2962 11 12.125V28.5312C11 28.7385 11.0823 28.9372 11.2288 29.0837C11.3753 29.2302 11.574 29.3125 11.7812 29.3125H25.8438C26.051 29.3125 26.2497 29.2302 26.3962 29.0837C26.5427 28.9372 26.625 28.7385 26.625 28.5312C26.625 28.324 26.5427 28.1253 26.3962 27.9788C26.2497 27.8323 26.051 27.75 25.8438 27.75H12.5625C12.5625 27.3356 12.7271 26.9382 13.0201 26.6451C13.3132 26.3521 13.7106 26.1875 14.125 26.1875H27.4062C27.6135 26.1875 27.8122 26.1052 27.9587 25.9587C28.1052 25.8122 28.1875 25.6135 28.1875 25.4062V9.78125C28.1875 9.57405 28.1052 9.37534 27.9587 9.22882C27.8122 9.08231 27.6135 9 27.4062 9ZM26.625 24.625H14.125C13.5763 24.6243 13.0372 24.7688 12.5625 25.0439V12.125C12.5625 11.7106 12.7271 11.3132 13.0201 11.0201C13.3132 10.7271 13.7106 10.5625 14.125 10.5625H26.625V24.625Z" fill="black"/>
</svg>
