<svg width="51" height="51" viewBox="0 0 51 51" fill="none" xmlns="http://www.w3.org/2000/svg">
<path d="M25.5001 37.5275C24.3854 39.111 22.8947 40.3927 21.162 41.2574C19.4293 42.1221 17.5089 42.5427 15.5734 42.4815C13.6379 42.4202 11.7479 41.879 10.0734 40.9064C8.39883 39.9339 6.99218 38.5605 5.97984 36.9097C4.9675 35.2589 4.38121 33.3824 4.27366 31.4489C4.16611 29.5154 4.54067 27.5855 5.36367 25.8326C6.18668 24.0797 7.43234 22.5588 8.98869 21.4065C10.5451 20.2543 12.3633 19.5068 14.2801 19.2312C13.7721 17.4894 13.6766 15.6532 14.0011 13.868C14.3257 12.0829 15.0615 10.3978 16.1501 8.94624C17.2388 7.4947 18.6504 6.31656 20.2733 5.50512C21.8962 4.69369 23.6857 4.27124 25.5001 4.27124C27.3145 4.27124 29.1041 4.69369 30.7269 5.50512C32.3498 6.31656 33.7615 7.4947 34.8501 8.94624C35.9388 10.3978 36.6745 12.0829 36.9991 13.868C37.3237 15.6532 37.2282 17.4894 36.7201 19.2312V19.2525C38.6392 19.5256 40.4602 20.2716 42.0192 21.4236C43.5782 22.5755 44.8262 24.0971 45.6509 25.8514C46.4755 27.6057 46.8509 29.5375 46.7431 31.4729C46.6354 33.4083 46.048 35.2866 45.0338 36.9385C44.0196 38.5904 42.6105 39.9641 40.9333 40.936C39.2561 41.9078 37.3635 42.4472 35.4259 42.5056C33.4884 42.564 31.5668 42.1396 29.8341 41.2706C28.1014 40.4016 26.612 39.1153 25.5001 37.5275ZM25.5001 37.5275V46.75" stroke="white" stroke-width="3.03571" stroke-linecap="round" stroke-linejoin="round"/>
</svg>
