<svg width="39" height="39" viewBox="0 0 39 39" fill="none" xmlns="http://www.w3.org/2000/svg">
<circle cx="19.5" cy="19.5" r="19.5" fill="#D9D9D9"/>
<path d="M20.3896 10.6458C20.301 10.4877 20.1719 10.3561 20.0156 10.2645C19.8592 10.1729 19.6813 10.1246 19.5 10.1246C19.3188 10.1246 19.1409 10.1729 18.9845 10.2645C18.8282 10.3561 18.6991 10.4877 18.6105 10.6458C17.7386 12.2266 17.021 13.8878 16.4678 15.6062C16.323 16.0552 15.8938 16.3666 15.4021 16.3802C13.9117 16.4194 12.4262 16.5673 10.9573 16.8229C10.1511 16.9646 9.84796 17.8833 10.4209 18.4437C11.532 19.5308 12.719 20.5375 13.973 21.4562C14.3553 21.7364 14.5125 22.2166 14.3667 22.6562C13.81 24.3257 13.4124 26.0442 13.1792 27.7885C13.075 28.575 13.9167 29.1302 14.648 28.7552C16.098 28.0117 17.4846 27.1505 18.7938 26.1802C18.9987 26.0302 19.2461 25.9494 19.5 25.9494C19.754 25.9494 20.0014 26.0302 20.2063 26.1802C21.5152 27.1508 22.9019 28.0121 24.3521 28.7552C25.0823 29.1302 25.925 28.575 25.8209 27.7885C25.5877 26.0438 25.1901 24.325 24.6334 22.6552C24.4875 22.2177 24.6438 21.7364 25.0271 21.4562C26.281 20.5375 27.468 19.5308 28.5792 18.4437C29.1521 17.8833 28.85 16.9646 28.0428 16.8229C26.5741 16.566 25.0884 16.418 23.598 16.3802C23.3622 16.3769 23.1332 16.3007 22.9424 16.1622C22.7517 16.0236 22.6084 15.8294 22.5323 15.6062C21.979 13.8881 21.2615 12.2263 20.3896 10.6458Z" stroke="black" stroke-width="1.5625" stroke-linecap="round" stroke-linejoin="round"/>
</svg>
