<svg width="39" height="39" viewBox="0 0 39 39" fill="none" xmlns="http://www.w3.org/2000/svg">
<circle cx="19.5" cy="19.5" r="19.5" fill="#D9D9D9"/>
<path d="M26.5312 11.6875H20.2812V8.5625C20.2812 8.3553 20.1989 8.15659 20.0524 8.01007C19.9059 7.86356 19.7072 7.78125 19.5 7.78125C19.2928 7.78125 19.0941 7.86356 18.9476 8.01007C18.8011 8.15659 18.7188 8.3553 18.7188 8.5625V11.6875H12.4688C11.6399 11.6875 10.8451 12.0167 10.259 12.6028C9.67299 13.1888 9.34375 13.9837 9.34375 14.8125V25.75C9.34375 26.5788 9.67299 27.3737 10.259 27.9597C10.8451 28.5458 11.6399 28.875 12.4688 28.875H26.5312C27.3601 28.875 28.1549 28.5458 28.741 27.9597C29.327 27.3737 29.6562 26.5788 29.6562 25.75V14.8125C29.6562 13.9837 29.327 13.1888 28.741 12.6028C28.1549 12.0167 27.3601 11.6875 26.5312 11.6875ZM28.0938 25.75C28.0938 26.1644 27.9291 26.5618 27.6361 26.8549C27.3431 27.1479 26.9457 27.3125 26.5312 27.3125H12.4688C12.0543 27.3125 11.6569 27.1479 11.3639 26.8549C11.0709 26.5618 10.9062 26.1644 10.9062 25.75V14.8125C10.9062 14.3981 11.0709 14.0007 11.3639 13.7076C11.6569 13.4146 12.0543 13.25 12.4688 13.25H26.5312C26.9457 13.25 27.3431 13.4146 27.6361 13.7076C27.9291 14.0007 28.0938 14.3981 28.0938 14.8125V25.75ZM23.0156 20.2812H15.9844C15.2592 20.2812 14.5637 20.5693 14.0509 21.0821C13.5381 21.5949 13.25 22.2904 13.25 23.0156C13.25 23.7408 13.5381 24.4363 14.0509 24.9491C14.5637 25.4619 15.2592 25.75 15.9844 25.75H23.0156C23.7408 25.75 24.4363 25.4619 24.9491 24.9491C25.4619 24.4363 25.75 23.7408 25.75 23.0156C25.75 22.2904 25.4619 21.5949 24.9491 21.0821C24.4363 20.5693 23.7408 20.2812 23.0156 20.2812ZM20.2812 21.8438V24.1875H18.7188V21.8438H20.2812ZM14.8125 23.0156C14.8125 22.7048 14.936 22.4068 15.1557 22.187C15.3755 21.9672 15.6736 21.8438 15.9844 21.8438H17.1562V24.1875H15.9844C15.6736 24.1875 15.3755 24.064 15.1557 23.8443C14.936 23.6245 14.8125 23.3264 14.8125 23.0156ZM23.0156 24.1875H21.8438V21.8438H23.0156C23.3264 21.8438 23.6245 21.9672 23.8443 22.187C24.064 22.4068 24.1875 22.7048 24.1875 23.0156C24.1875 23.3264 24.064 23.6245 23.8443 23.8443C23.6245 24.064 23.3264 24.1875 23.0156 24.1875ZM14.0312 17.5469C14.0312 17.3151 14.1 17.0885 14.2287 16.8958C14.3575 16.7031 14.5405 16.5529 14.7547 16.4642C14.9688 16.3755 15.2044 16.3523 15.4317 16.3975C15.6591 16.4427 15.8679 16.5543 16.0318 16.7182C16.1957 16.8821 16.3073 17.0909 16.3525 17.3183C16.3977 17.5456 16.3745 17.7812 16.2858 17.9953C16.1971 18.2095 16.0469 18.3925 15.8542 18.5213C15.6615 18.65 15.4349 18.7188 15.2031 18.7188C14.8923 18.7188 14.5943 18.5953 14.3745 18.3755C14.1547 18.1557 14.0313 17.8577 14.0312 17.5469ZM22.625 17.5469C22.625 17.3151 22.6937 17.0885 22.8225 16.8958C22.9513 16.7031 23.1343 16.5529 23.3484 16.4642C23.5626 16.3755 23.7982 16.3523 24.0255 16.3975C24.2528 16.4427 24.4616 16.5543 24.6255 16.7182C24.7894 16.8821 24.901 17.0909 24.9462 17.3183C24.9914 17.5456 24.9682 17.7812 24.8795 17.9953C24.7908 18.2095 24.6406 18.3925 24.4479 18.5213C24.2552 18.65 24.0286 18.7188 23.7969 18.7188C23.4861 18.7188 23.188 18.5953 22.9682 18.3755C22.7485 18.1557 22.625 17.8577 22.625 17.5469Z" fill="black"/>
</svg>
