<svg width="39" height="39" viewBox="0 0 39 39" fill="none" xmlns="http://www.w3.org/2000/svg">
<circle cx="19.5" cy="19.5" r="19.5" fill="#D9D9D9"/>
<path d="M27.3375 21.5437C27.9165 20.8214 28.3465 19.9914 28.6027 19.1018C28.8588 18.2122 28.936 17.2806 28.8297 16.3609C28.2293 16.6285 27.5792 16.7664 26.9219 16.7656C25.9478 16.7673 24.9977 16.464 24.2047 15.8984L22.9484 17.1562L27.3375 21.5437ZM26.2328 22.65L21.3172 17.7344C21.2987 17.7175 21.2809 17.6998 21.2641 17.6812L16.35 12.7656C15.7984 13.4531 15.375 14.2469 15.1125 15.1094C14.6004 14.9917 14.081 14.9087 13.5578 14.8609C14.142 12.7519 15.5085 10.945 17.3788 9.80865C19.2491 8.67229 21.4824 8.292 23.6234 8.7453C24.9368 9.02569 26.1666 9.6089 27.2147 10.4485C28.2629 11.288 29.1006 12.3608 29.6609 13.5812C29.9203 14.15 30.1203 14.7484 30.2531 15.375C30.706 17.5158 30.3255 19.7487 29.1892 21.6186C28.0528 23.4886 26.2462 24.8549 24.1375 25.4391C24.0893 24.9158 24.0057 24.3964 23.8875 23.8844C24.7402 23.625 25.5356 23.2055 26.2312 22.6484M28.4656 14.7937C28.2037 14.0596 27.8214 13.3742 27.3344 12.7656L25.3313 14.7687C25.8054 15.0489 26.3452 15.1987 26.8959 15.2031C27.4466 15.2075 27.9886 15.0663 28.4672 14.7937M24.2297 13.6625L26.2312 11.6625C25.6238 11.1752 24.9394 10.7923 24.2063 10.5297C23.9453 10.9859 23.7969 11.5141 23.7969 12.0766C23.7969 12.6547 23.9531 13.1984 24.2297 13.6625ZM22.6391 10.1719C21.7192 10.0654 20.7873 10.1424 19.8974 10.3986C19.0075 10.6547 18.1772 11.0848 17.4547 11.6641L21.8438 16.05L23.1 14.7937C22.5353 14.001 22.2326 13.0515 22.2344 12.0781C22.2344 11.3984 22.3797 10.7531 22.6406 10.1703M10.9062 17.9375C10.699 17.9375 10.5003 18.0198 10.3538 18.1663C10.2073 18.3128 10.125 18.5115 10.125 18.7187V20.2812C10.125 22.5604 11.0304 24.7463 12.6421 26.3579C14.2537 27.9696 16.4395 28.875 18.7188 28.875H20.2812C20.4885 28.875 20.6872 28.7927 20.8337 28.6462C20.9802 28.4997 21.0625 28.3009 21.0625 28.0937V26.5312C21.0625 25.4027 20.8402 24.2852 20.4083 23.2426C19.9765 22.1999 19.3435 21.2525 18.5454 20.4545C17.7474 19.6565 16.8001 19.0235 15.7574 18.5917C14.7148 18.1598 13.5973 17.9375 12.4688 17.9375H10.9062ZM8.5625 18.7187C8.5625 18.0971 8.80943 17.501 9.24897 17.0615C9.68851 16.6219 10.2846 16.375 10.9062 16.375H12.4688C15.1624 16.375 17.7456 17.445 19.6503 19.3497C21.555 21.2544 22.625 23.8376 22.625 26.5312V28.0937C22.625 28.7153 22.3781 29.3115 21.9385 29.751C21.499 30.1906 20.9029 30.4375 20.2812 30.4375H18.7188C16.0251 30.4375 13.4419 29.3675 11.5372 27.4628C9.63253 25.5581 8.5625 22.9748 8.5625 20.2812V18.7187ZM13.8687 21.6812C13.9413 21.6085 14.0275 21.5508 14.1224 21.5114C14.2174 21.472 14.3191 21.4517 14.4219 21.4517C14.5246 21.4517 14.6264 21.472 14.7213 21.5114C14.8162 21.5508 14.9024 21.6085 14.975 21.6812L17.3188 24.025C17.3914 24.0976 17.449 24.1839 17.4883 24.2788C17.5276 24.3737 17.5479 24.4754 17.5479 24.5781C17.5479 24.6808 17.5276 24.7826 17.4883 24.8775C17.449 24.9724 17.3914 25.0586 17.3188 25.1312C17.2461 25.2039 17.1599 25.2615 17.065 25.3008C16.9701 25.3401 16.8683 25.3604 16.7656 25.3604C16.6629 25.3604 16.5612 25.3401 16.4663 25.3008C16.3714 25.2615 16.2851 25.2039 16.2125 25.1312L13.8687 22.7875C13.796 22.7149 13.7383 22.6287 13.6989 22.5338C13.6595 22.4389 13.6392 22.3371 13.6392 22.2344C13.6392 22.1316 13.6595 22.0299 13.6989 21.9349C13.7383 21.84 13.796 21.7538 13.8687 21.6812Z" fill="black"/>
</svg>
