<svg width="39" height="39" viewBox="0 0 39 39" fill="none" xmlns="http://www.w3.org/2000/svg">
<circle cx="19.5" cy="19.5" r="19.5" fill="#D9D9D9"/>
<path d="M19.4999 9.08332C21.0439 9.08175 22.5689 9.42412 23.964 10.0856C25.3592 10.747 26.5895 11.7109 27.5655 12.9073L20.9728 19.5L27.5655 26.0927C26.5895 27.289 25.3592 28.253 23.964 28.9144C22.5689 29.5758 21.0439 29.9182 19.4999 29.9167C13.7468 29.9167 9.08325 25.2531 9.08325 19.5C9.08325 13.7469 13.7468 9.08332 19.4999 9.08332ZM19.4999 11.1667C18.1853 11.1669 16.8893 11.4782 15.718 12.075C14.5466 12.6719 13.5331 13.5374 12.7602 14.6009C11.9873 15.6644 11.477 16.8957 11.271 18.1941C11.065 19.4925 11.1691 20.8212 11.5748 22.0717C11.9805 23.3222 12.6764 24.459 13.6054 25.3891C14.5345 26.3193 15.6704 27.0164 16.9205 27.4236C18.1705 27.8307 19.4991 27.9364 20.7977 27.7319C22.0964 27.5274 23.3282 27.0185 24.3926 26.2469L24.6093 26.0833L18.026 19.5L24.6093 12.9156L24.3926 12.7531C23.058 11.783 21.4644 11.2328 19.8155 11.1729L19.4999 11.1667ZM19.4999 12.2083C19.9143 12.2083 20.3117 12.3729 20.6048 12.666C20.8978 12.959 21.0624 13.3564 21.0624 13.7708C21.0624 14.1852 20.8978 14.5826 20.6048 14.8757C20.3117 15.1687 19.9143 15.3333 19.4999 15.3333C19.0855 15.3333 18.6881 15.1687 18.3951 14.8757C18.102 14.5826 17.9374 14.1852 17.9374 13.7708C17.9374 13.3564 18.102 12.959 18.3951 12.666C18.6881 12.3729 19.0855 12.2083 19.4999 12.2083Z" fill="black"/>
</svg>
