<svg width="39" height="39" viewBox="0 0 39 39" fill="none" xmlns="http://www.w3.org/2000/svg">
<circle cx="19.5" cy="19.5" r="19.5" fill="#D9D9D9"/>
<path d="M25.2292 19.5C24.8148 19.5 24.4173 19.3354 24.1243 19.0424C23.8313 18.7493 23.6667 18.3519 23.6667 17.9375C23.6667 17.5231 23.8313 17.1257 24.1243 16.8326C24.4173 16.5396 24.8148 16.375 25.2292 16.375C25.6436 16.375 26.041 16.5396 26.334 16.8326C26.627 17.1257 26.7917 17.5231 26.7917 17.9375C26.7917 18.3519 26.627 18.7493 26.334 19.0424C26.041 19.3354 25.6436 19.5 25.2292 19.5ZM22.1042 15.3333C21.6898 15.3333 21.2923 15.1687 20.9993 14.8757C20.7063 14.5827 20.5417 14.1852 20.5417 13.7708C20.5417 13.3564 20.7063 12.959 20.9993 12.666C21.2923 12.373 21.6898 12.2083 22.1042 12.2083C22.5186 12.2083 22.916 12.373 23.209 12.666C23.502 12.959 23.6667 13.3564 23.6667 13.7708C23.6667 14.1852 23.502 14.5827 23.209 14.8757C22.916 15.1687 22.5186 15.3333 22.1042 15.3333ZM16.8958 15.3333C16.4814 15.3333 16.084 15.1687 15.791 14.8757C15.498 14.5827 15.3333 14.1852 15.3333 13.7708C15.3333 13.3564 15.498 12.959 15.791 12.666C16.084 12.373 16.4814 12.2083 16.8958 12.2083C17.3102 12.2083 17.7077 12.373 18.0007 12.666C18.2937 12.959 18.4583 13.3564 18.4583 13.7708C18.4583 14.1852 18.2937 14.5827 18.0007 14.8757C17.7077 15.1687 17.3102 15.3333 16.8958 15.3333ZM13.7708 19.5C13.3564 19.5 12.959 19.3354 12.666 19.0424C12.373 18.7493 12.2083 18.3519 12.2083 17.9375C12.2083 17.5231 12.373 17.1257 12.666 16.8326C12.959 16.5396 13.3564 16.375 13.7708 16.375C14.1852 16.375 14.5827 16.5396 14.8757 16.8326C15.1687 17.1257 15.3333 17.5231 15.3333 17.9375C15.3333 18.3519 15.1687 18.7493 14.8757 19.0424C14.5827 19.3354 14.1852 19.5 13.7708 19.5ZM19.5 10.125C17.0136 10.125 14.629 11.1127 12.8709 12.8709C11.1127 14.629 10.125 17.0136 10.125 19.5C10.125 21.9864 11.1127 24.371 12.8709 26.1291C14.629 27.8873 17.0136 28.875 19.5 28.875C19.9144 28.875 20.3118 28.7104 20.6049 28.4174C20.8979 28.1243 21.0625 27.7269 21.0625 27.3125C21.0625 26.9062 20.9062 26.5417 20.6562 26.2708C20.4167 25.9896 20.2604 25.625 20.2604 25.2292C20.2604 24.8148 20.425 24.4173 20.7181 24.1243C21.0111 23.8313 21.4085 23.6667 21.8229 23.6667H23.6667C25.048 23.6667 26.3728 23.1179 27.3495 22.1412C28.3263 21.1644 28.875 19.8397 28.875 18.4583C28.875 13.8542 24.6771 10.125 19.5 10.125Z" fill="black"/>
</svg>
