<svg width="39" height="39" viewBox="0 0 39 39" fill="none" xmlns="http://www.w3.org/2000/svg">
<circle cx="19.5" cy="19.5" r="19.5" fill="#D9D9D9"/>
<path d="M12.2083 28.875C11.3229 28.875 10.6937 28.4802 10.3208 27.6906C9.94787 26.901 10.0388 26.1674 10.5937 25.4896L16.375 18.4583V12.2083H15.3333C15.0381 12.2083 14.7909 12.1083 14.5916 11.9083C14.3923 11.7083 14.2923 11.4611 14.2916 11.1667C14.2916 10.8715 14.3916 10.6243 14.5916 10.425C14.7916 10.2257 15.0388 10.1257 15.3333 10.125H23.6666C23.9618 10.125 24.2093 10.225 24.4093 10.425C24.6093 10.625 24.709 10.8722 24.7083 11.1667C24.7083 11.4618 24.6083 11.7094 24.4083 11.9094C24.2083 12.1094 23.9611 12.209 23.6666 12.2083H22.625V18.4583L28.4062 25.4896C28.9618 26.1667 29.0531 26.9003 28.6802 27.6906C28.3072 28.4809 27.6777 28.8757 26.7916 28.875H12.2083ZM12.2083 26.7917H26.7916L20.5416 19.1875V12.2083H18.4583V19.1875L12.2083 26.7917Z" fill="black"/>
</svg>
