<svg width="39" height="39" viewBox="0 0 39 39" fill="none" xmlns="http://www.w3.org/2000/svg">
<circle cx="19.5" cy="19.5" r="19.5" fill="#D9D9D9"/>
<path d="M13.25 28.875C14.9759 28.875 16.375 27.4759 16.375 25.75C16.375 24.0241 14.9759 22.625 13.25 22.625C11.5241 22.625 10.125 24.0241 10.125 25.75C10.125 27.4759 11.5241 28.875 13.25 28.875Z" stroke="black" stroke-width="1.5625" stroke-linecap="round" stroke-linejoin="round"/>
<path d="M16.375 25.75V12.2083" stroke="black" stroke-width="1.5625" stroke-linecap="round" stroke-linejoin="round"/>
<path d="M28.875 10.125L16.375 12.2083M28.875 14.2917L16.375 16.375" stroke="black" stroke-width="1.5625" stroke-linecap="round"/>
<path d="M25.75 26.7917C27.4759 26.7917 28.875 25.3926 28.875 23.6667C28.875 21.9408 27.4759 20.5417 25.75 20.5417C24.0241 20.5417 22.625 21.9408 22.625 23.6667C22.625 25.3926 24.0241 26.7917 25.75 26.7917Z" stroke="black" stroke-width="1.5625" stroke-linecap="round" stroke-linejoin="round"/>
<path d="M28.875 23.6667V10.125" stroke="black" stroke-width="1.5625" stroke-linecap="round" stroke-linejoin="round"/>
</svg>
