<svg width="39" height="39" viewBox="0 0 39 39" fill="none" xmlns="http://www.w3.org/2000/svg">
<circle cx="19.5" cy="19.5" r="19.5" fill="#D9D9D9"/>
<path fill-rule="evenodd" clip-rule="evenodd" d="M30.4062 10.9062C30.4269 10.6463 30.4373 10.3857 30.4375 10.125V8.5625H27.7031C25.6746 8.56292 23.7008 9.22097 22.0779 10.438C20.4549 11.655 19.2703 13.3653 18.7016 15.3125C17.826 14.1831 16.7034 13.2691 15.4199 12.6408C14.1363 12.0124 12.726 11.6863 11.2969 11.6875H8.5625V13.25C8.5625 15.7364 9.55022 18.121 11.3084 19.8791C13.0665 21.6373 15.4511 22.625 17.9375 22.625H18.3281V29.2656C18.3281 29.5764 18.4516 29.8745 18.6714 30.0943C18.8911 30.314 19.1892 30.4375 19.5 30.4375C19.8108 30.4375 20.1089 30.314 20.3286 30.0943C20.5484 29.8745 20.6719 29.5764 20.6719 29.2656V19.5H21.0625C23.4139 19.5003 25.6796 18.6171 27.4103 17.0253C29.141 15.4335 30.2103 13.2495 30.4062 10.9062ZM20.7141 17.1562C20.9063 15.4372 21.7254 13.8493 23.0148 12.6963C24.3042 11.5432 25.9734 10.9059 27.7031 10.9062H28.0516C27.8594 12.6253 27.0402 14.2132 25.7508 15.3662C24.4614 16.5193 22.7923 17.1566 21.0625 17.1562H20.7141ZM11.2969 14.0312C13.0266 14.0309 14.6958 14.6682 15.9852 15.8213C17.2746 16.9743 18.0937 18.5622 18.2859 20.2812H17.9375C16.2077 20.2816 14.5386 19.6443 13.2492 18.4912C11.9598 17.3382 11.1406 15.7503 10.9484 14.0312H11.2969Z" fill="black"/>
</svg>
