<svg width="39" height="39" viewBox="0 0 39 39" fill="none" xmlns="http://www.w3.org/2000/svg">
<circle cx="19.5" cy="19.5" r="19.5" fill="#D9D9D9"/>
<path d="M8.04175 29.9167C8.04175 30.4792 8.5105 30.9584 9.08341 30.9584H22.6251C23.2084 30.9584 23.6667 30.4792 23.6667 29.9167V28.875H8.04175V29.9167ZM15.8542 16.375C11.948 16.375 8.04175 18.4584 8.04175 22.625H23.6667C23.6667 18.4584 19.7605 16.375 15.8542 16.375ZM10.7709 20.5417C11.9272 18.9271 14.3855 18.4584 15.8542 18.4584C17.323 18.4584 19.7813 18.9271 20.9376 20.5417H10.7709ZM8.04175 24.7084H23.6667V26.7917H8.04175V24.7084ZM25.7501 12.2084V8.04169H23.6667V12.2084H18.4584L18.698 14.2917H28.6563L27.198 28.875H25.7501V30.9584H27.5417C28.4167 30.9584 29.1355 30.2813 29.2397 29.4271L30.9584 12.2084H25.7501Z" fill="black"/>
</svg>
