<svg width="55" height="55" viewBox="0 0 55 55" fill="none" xmlns="http://www.w3.org/2000/svg">
<path d="M43.5418 45.8333V42.3958M11.4585 45.8333V42.3958" stroke="white" stroke-width="3.4375" stroke-linecap="round"/>
<path d="M48.1252 27.5C48.1252 18.8581 48.1252 14.536 45.4393 11.8525C42.7558 9.16666 38.4337 9.16666 29.7918 9.16666H25.2085C16.5666 9.16666 12.2445 9.16666 9.561 11.8525C6.87516 14.536 6.87516 18.8581 6.87516 27.5M4.5835 34.375C4.5835 32.2392 4.5835 31.1712 4.93183 30.3302C5.16217 29.7737 5.49992 29.2681 5.92578 28.8423C6.35163 28.4164 6.85724 28.0787 7.4137 27.8483C8.25475 27.5 9.32266 27.5 11.4585 27.5H43.5418C45.6777 27.5 46.7456 27.5 47.5866 27.8483C48.1431 28.0787 48.6487 28.4164 49.0745 28.8423C49.5004 29.2681 49.8382 29.7737 50.0685 30.3302C50.4168 31.1712 50.4168 32.2392 50.4168 34.375C50.4168 36.5108 50.4168 37.5787 50.0685 38.4198C49.8382 38.9762 49.5004 39.4818 49.0745 39.9077C48.6487 40.3336 48.1431 40.6713 47.5866 40.9017C46.7456 41.25 45.6777 41.25 43.5418 41.25H11.4585C9.32266 41.25 8.25475 41.25 7.4137 40.9017C6.85724 40.6713 6.35163 40.3336 5.92578 39.9077C5.49992 39.4818 5.16217 38.9762 4.93183 38.4198C4.5835 37.5787 4.5835 36.5108 4.5835 34.375Z" stroke="white" stroke-width="3.4375"/>
<path d="M42.3966 27.4999V24.0624C42.3966 19.7404 42.3966 17.5816 41.0537 16.2387C39.7108 14.8958 37.5521 14.8958 33.23 14.8958H21.7716C17.4496 14.8958 15.2908 14.8958 13.9479 16.2387C12.605 17.5816 12.605 19.7404 12.605 24.0624V27.4999M27.5008 16.0416V27.4999" stroke="white" stroke-width="3.4375"/>
</svg>
