<svg width="53" height="53" viewBox="0 0 53 53" fill="none" xmlns="http://www.w3.org/2000/svg">
<path d="M32.7499 34.1188C31.9549 32.9042 31.3145 31.7779 30.7182 30.74C28.1345 26.3013 26.0366 23.2979 19.8753 22.3704V12.1459C19.8753 7.88377 16.4082 4.41669 12.1462 4.41669C7.88408 4.41669 4.41699 7.88377 4.41699 12.1459V48.5834H8.83366V44.1667H15.4587V48.5834H19.8753V26.8534C23.762 27.6042 24.9324 29.5696 26.8757 32.9484C27.5162 34.0746 28.2228 35.2671 29.0841 36.57C34.0307 43.99 39.0216 48.5834 48.5837 48.5834V44.1667C40.9207 44.1667 37.1003 40.6334 32.7499 34.1188ZM12.1462 8.83335C13.9791 8.83335 15.4587 10.3129 15.4587 12.1459V22.0834H8.83366V12.1459C8.83366 10.3129 10.3132 8.83335 12.1462 8.83335ZM8.83366 39.75V35.3334H15.4587V39.75H8.83366ZM15.4587 30.9167H8.83366V26.5H15.4587V30.9167Z" fill="white"/>
</svg>
