<svg width="100" height="100" viewBox="0 0 100 100" fill="none" xmlns="http://www.w3.org/2000/svg">
<path d="M89.5274 83.2034C83.3516 72.5315 73.6563 65.0432 62.3906 61.8674C67.8678 59.0833 72.2476 54.5356 74.8239 48.9576C77.4002 43.3797 78.0228 37.0966 76.5913 31.1216C75.1598 25.1465 71.7577 19.8277 66.9335 16.0227C62.1093 12.2177 56.1442 10.1484 50 10.1484C43.8559 10.1484 37.8908 12.2177 33.0666 16.0227C28.2423 19.8277 24.8402 25.1465 23.4087 31.1216C21.9773 37.0966 22.5999 43.3797 25.1761 48.9576C27.7524 54.5356 32.1323 59.0833 37.6094 61.8674C26.3438 65.0393 16.6484 72.5276 10.4727 83.2034C10.3031 83.4701 10.1892 83.7684 10.1379 84.0804C10.0866 84.3923 10.0989 84.7113 10.1741 85.0183C10.2493 85.3254 10.3859 85.614 10.5755 85.8669C10.7652 86.1198 11.004 86.3317 11.2777 86.4899C11.5513 86.6481 11.8542 86.7493 12.168 86.7874C12.4818 86.8255 12.8 86.7998 13.1036 86.7117C13.4072 86.6236 13.6898 86.475 13.9345 86.2749C14.1792 86.0748 14.3808 85.8272 14.5274 85.5471C22.0313 72.5823 35.2891 64.844 50 64.844C64.7109 64.844 77.9688 72.5823 85.4727 85.5471C85.6192 85.8272 85.8208 86.0748 86.0655 86.2749C86.3102 86.475 86.5928 86.6236 86.8964 86.7117C87.2 86.7998 87.5182 86.8255 87.832 86.7874C88.1458 86.7493 88.4487 86.6481 88.7223 86.4899C88.996 86.3317 89.2349 86.1198 89.4245 85.8669C89.6142 85.614 89.7507 85.3254 89.8259 85.0183C89.9011 84.7113 89.9134 84.3923 89.8621 84.0804C89.8108 83.7684 89.6969 83.4701 89.5274 83.2034ZM27.3438 37.5003C27.3438 33.0193 28.6725 28.6389 31.162 24.9131C33.6515 21.1873 37.1899 18.2834 41.3298 16.5686C45.4697 14.8538 50.0251 14.4051 54.42 15.2793C58.8149 16.1535 62.8519 18.3113 66.0204 21.4799C69.1889 24.6484 71.3467 28.6854 72.2209 33.0802C73.0951 37.4751 72.6465 42.0305 70.9317 46.1704C69.2169 50.3103 66.3129 53.8487 62.5871 56.3382C58.8613 58.8277 54.481 60.1565 50 60.1565C43.9934 60.1493 38.2349 57.76 33.9876 53.5126C29.7403 49.2653 27.351 43.5068 27.3438 37.5003Z" fill="white"/>
</svg>
