<svg width="100" height="100" viewBox="0 0 100 100" fill="none" xmlns="http://www.w3.org/2000/svg">
<path d="M19.2292 79.1663C17.3125 79.1663 15.7125 78.5247 14.4292 77.2413C13.1431 75.9552 12.5 74.3538 12.5 72.4372V27.5622C12.5 25.6455 13.1431 24.0455 14.4292 22.7622C15.7125 21.4761 17.3125 20.833 19.2292 20.833H80.7708C82.6875 20.833 84.2875 21.4761 85.5708 22.7622C86.8569 24.0455 87.5 25.6455 87.5 27.5622V72.4372C87.5 74.3538 86.8583 75.9538 85.575 77.2372C84.2889 78.5233 82.6875 79.1663 80.7708 79.1663H19.2292ZM50 50.4788L16.6667 28.6872V72.4372C16.6667 73.1844 16.9069 73.7983 17.3875 74.2788C17.8681 74.7594 18.4819 74.9997 19.2292 74.9997H80.7708C81.5181 74.9997 82.1319 74.7594 82.6125 74.2788C83.093 73.7983 83.3333 73.1844 83.3333 72.4372V28.6872L50 50.4788ZM50 45.833L82.05 24.9997H17.95L50 45.833ZM16.6667 28.6872V24.9997V72.4372C16.6667 73.1844 16.9069 73.7983 17.3875 74.2788C17.8681 74.7594 18.4819 74.9997 19.2292 74.9997H16.6667V28.6872Z" fill="white"/>
</svg>
