<svg width="57" height="56" viewBox="0 0 57 56" fill="none" xmlns="http://www.w3.org/2000/svg">
<path d="M44.5314 17.2379H40.9689V13.7903C40.9672 12.3904 40.5254 11.0242 39.7019 9.87318C38.8785 8.72221 37.7126 7.84105 36.3592 7.34685C35.0058 6.85265 33.529 6.76883 32.1251 7.10652C30.7213 7.44421 29.4569 8.18742 28.5001 9.23734C27.5883 8.23715 26.3962 7.51439 25.0684 7.15663C23.7406 6.79888 22.3341 6.8215 21.0193 7.22175C19.7046 7.622 18.538 8.3827 17.6609 9.41165C16.7839 10.4406 16.2341 11.6936 16.0781 13.0189C14.996 12.4036 13.7651 12.0759 12.51 12.0689C11.255 12.0619 10.0203 12.3758 8.93084 12.9789C7.84143 13.5821 6.93597 14.453 6.3061 15.5036C5.67622 16.5541 5.34428 17.7471 5.34387 18.9617V27.5806C5.34387 33.5239 7.78354 39.2238 12.1262 43.4264C16.4688 47.6289 22.3587 49.9899 28.5001 49.9899C34.6415 49.9899 40.5314 47.6289 44.8741 43.4264C49.2167 39.2238 51.6564 33.5239 51.6564 27.5806V24.133C51.6564 22.3043 50.9057 20.5505 49.5695 19.2574C48.2333 17.9643 46.421 17.2379 44.5314 17.2379ZM33.8439 10.3427C34.7887 10.3427 35.6948 10.7059 36.3629 11.3525C37.031 11.999 37.4064 12.8759 37.4064 13.7903V17.2379H30.2814V13.7903C30.2814 12.8759 30.6567 11.999 31.3248 11.3525C31.9929 10.7059 32.899 10.3427 33.8439 10.3427ZM19.5939 13.7903C19.5939 12.8759 19.9692 11.999 20.6373 11.3525C21.3054 10.7059 22.2115 10.3427 23.1564 10.3427C24.1012 10.3427 25.0073 10.7059 25.6754 11.3525C26.3435 11.999 26.7189 12.8759 26.7189 13.7903V22.4093C26.7189 23.3236 26.3435 24.2005 25.6754 24.8471C25.0073 25.4936 24.1012 25.8568 23.1564 25.8568C22.2115 25.8568 21.3054 25.4936 20.6373 24.8471C19.9692 24.2005 19.5939 23.3236 19.5939 22.4093V13.7903ZM8.90637 18.9617C8.90637 18.0473 9.28171 17.1704 9.9498 16.5239C10.6179 15.8773 11.524 15.5141 12.4689 15.5141C13.4137 15.5141 14.3198 15.8773 14.9879 16.5239C15.656 17.1704 16.0314 18.0473 16.0314 18.9617V22.4093C16.0314 23.3236 15.656 24.2005 14.9879 24.8471C14.3198 25.4936 13.4137 25.8568 12.4689 25.8568C11.524 25.8568 10.6179 25.4936 9.9498 24.8471C9.28171 24.2005 8.90637 23.3236 8.90637 22.4093V18.9617ZM48.0939 27.5806C48.0938 32.5395 46.0863 37.3011 42.5017 40.8447C38.9172 44.3883 34.0407 46.432 28.9177 46.5377C23.7947 46.6434 18.8327 44.8027 15.0953 41.4101C11.358 38.0175 9.14263 33.3431 8.92419 28.3887C10.348 29.1811 12.0114 29.472 13.6317 29.212C15.252 28.952 16.7294 28.157 17.8126 26.9622C19.0402 28.3159 20.7674 29.1497 22.6233 29.2847C24.4792 29.4197 26.3158 28.845 27.7386 27.6841C28.3794 28.7118 29.2847 29.5611 30.366 30.1491C29.2199 31.1179 28.3015 32.313 27.6724 33.654C27.0433 34.9949 26.7182 36.4507 26.7189 37.9234C26.7189 38.3805 26.9065 38.819 27.2406 39.1423C27.5746 39.4655 28.0277 39.6472 28.5001 39.6472C28.9725 39.6472 29.4256 39.4655 29.7597 39.1423C30.0937 38.819 30.2814 38.3805 30.2814 37.9234C30.2814 36.0947 31.032 34.3408 32.3682 33.0478C33.7044 31.7547 35.5167 31.0282 37.4064 31.0282C37.8788 31.0282 38.3319 30.8466 38.6659 30.5233C39 30.2 39.1876 29.7616 39.1876 29.3044C39.1876 28.8472 39 28.4088 38.6659 28.0855C38.3319 27.7622 37.8788 27.5806 37.4064 27.5806H33.8439C32.899 27.5806 31.9929 27.2174 31.3248 26.5709C30.6567 25.9243 30.2814 25.0474 30.2814 24.133V20.6855H44.5314C45.4762 20.6855 46.3823 21.0487 47.0504 21.6952C47.7185 22.3418 48.0939 23.2187 48.0939 24.133V27.5806Z" fill="white"/>
</svg>
