<svg width="37" height="40" viewBox="0 0 37 40" fill="none" xmlns="http://www.w3.org/2000/svg">
<path d="M2 34V6C2 4.93913 2.42821 3.92172 3.19044 3.17157C3.95266 2.42143 4.98646 2 6.0644 2H33.2959C33.6193 2 33.9294 2.12643 34.1581 2.35147C34.3868 2.57652 34.5152 2.88174 34.5152 3.2V29.428M6.0644 30H34.5152M6.0644 38H34.5152" stroke="white" stroke-width="3.387" stroke-linecap="round"/>
<path d="M6.0644 38.0001C4.98646 38.0001 3.95266 37.5786 3.19044 36.8285C2.42821 36.0783 2 35.0609 2 34.0001C2 32.9392 2.42821 31.9218 3.19044 31.1716C3.95266 30.4215 4.98646 30.0001 6.0644 30.0001" stroke="white" stroke-width="3.387" stroke-linecap="round" stroke-linejoin="round"/>
<path d="M12.1609 9.99994H24.3541" stroke="white" stroke-width="3.387" stroke-linecap="round"/>
</svg>
