<svg width="576" height="343" viewBox="0 0 576 343" fill="none" xmlns="http://www.w3.org/2000/svg">
<path d="M544.101 166.146C541.305 152.057 485.876 146.821 406.573 155.474V155.329C476.653 147.784 531.973 148.203 558.298 156.856C568.03 160.056 573.803 164.383 574.892 169.837C576.381 177.345 568.883 186.235 554.104 195.834C526.49 213.85 473.422 234.357 406.337 252.882L406.246 293.151C388.472 298.059 369.7 302.823 350.146 307.386L350.255 267.135C333.625 270.99 316.45 274.716 298.839 278.207C279.322 282.079 260.204 285.515 241.649 288.515L204.358 334.274C177.796 337.855 152.833 340.419 130.12 341.946L165.36 298.696L177.397 283.934C201.943 280.752 228.141 276.643 255.375 271.662C263.762 270.135 272.241 268.517 280.81 266.808C304.939 262.009 328.232 256.846 350.291 251.464C370.063 246.628 388.835 241.629 406.374 236.539C459.097 221.249 500.564 205.233 523.494 191.216C537.329 182.763 545.372 172.527 544.101 166.146Z" fill="white" stroke="white" stroke-miterlimit="10"/>
<path d="M406.954 2.30884L406.755 85.9545L406.573 152.984V156.583L406.482 195.579L406.446 210.905L406.41 225.794C388.872 230.703 370.081 235.575 350.309 240.302C327.906 245.665 304.267 250.846 279.757 255.718C275.218 256.627 270.716 257.5 266.232 258.354C238.799 263.608 212.31 268.062 187.382 271.68C131.445 279.825 83.3698 283.788 50.0364 283.188C50.0364 283.188 50.0182 283.206 50.0001 283.188C50.0001 283.188 49.988 283.188 49.9637 283.188C49.9637 283.188 49.9456 283.206 49.9274 283.188C26.6885 282.788 10.639 280.152 4.10306 275.171C2.77772 274.189 1.85179 273.08 1.34343 271.88C1.16188 271.48 1.03479 271.08 0.944015 270.662C-3.32252 249.174 114.325 207.687 263.817 177.945L263.708 178.054C259.042 179.017 254.412 179.999 249.837 180.981C247.604 181.453 245.389 181.926 243.192 182.399C219.826 187.307 197.386 192.561 176.217 197.997C175.545 198.161 174.891 198.343 174.22 198.506C91.3763 219.359 31.8264 240.484 20.679 253.791C19.1902 255.573 18.573 257.209 18.8634 258.682C18.9542 259.191 19.1721 259.663 19.4626 260.118C24.0196 266.881 51.2165 268.426 93.0466 265.463C93.0466 265.445 93.1011 265.445 93.1193 265.445C123.257 263.299 160.966 258.791 203.305 252.173C228.323 248.265 254.957 243.629 282.59 238.302C287.056 237.429 291.558 236.539 296.079 235.648C314.725 231.939 332.88 228.103 350.382 224.213L350.418 202.869L350.527 163.328V154.929L344.155 162.783L343.392 163.71L343.265 163.874L342.793 164.437L305.357 210.378C296.479 211.978 287.492 213.686 278.432 215.486C259.568 219.231 241.213 223.231 223.494 227.394L263.545 178.272C265.778 177.799 268.011 177.345 270.244 176.89C270.553 176.818 270.861 176.763 271.17 176.709C273.584 176.199 275.999 175.727 278.432 175.236C286.311 173.672 294.136 172.182 301.889 170.746C292.811 172.364 283.588 174.091 274.274 175.89C270.97 176.527 267.648 177.181 264.325 177.836C264.162 177.872 263.98 177.908 263.817 177.945L350.745 71.2652L406.954 2.30884Z" fill="white"/>
<path d="M263.817 177.945C114.325 207.687 -3.32252 249.174 0.944015 270.662C1.03479 271.08 1.16188 271.48 1.34343 271.88C1.85179 273.08 2.77772 274.189 4.10306 275.171C10.639 280.152 26.6885 282.788 49.9274 283.188C49.9456 283.206 49.9637 283.188 49.9637 283.188C49.988 283.188 50.0001 283.188 50.0001 283.188C50.0182 283.206 50.0364 283.188 50.0364 283.188C83.3698 283.788 131.445 279.825 187.382 271.68C212.31 268.062 238.799 263.608 266.232 258.354C270.716 257.5 275.218 256.627 279.757 255.718C304.267 250.846 327.906 245.665 350.309 240.302C370.081 235.575 388.872 230.703 406.41 225.794L406.446 210.905L406.482 195.579L406.573 156.583V152.984L406.755 85.9545L406.954 2.30884L350.745 71.2652L263.817 177.945ZM263.817 177.945L263.708 178.054C259.042 179.017 254.412 179.999 249.837 180.981C247.604 181.453 245.389 181.926 243.192 182.399C219.826 187.307 197.386 192.561 176.217 197.997C175.545 198.161 174.891 198.343 174.22 198.506C91.3763 219.359 31.8264 240.484 20.679 253.791C19.1902 255.573 18.573 257.209 18.8634 258.682C18.9542 259.191 19.1721 259.663 19.4626 260.118C24.0196 266.881 51.2165 268.426 93.0466 265.463C93.0466 265.445 93.1011 265.445 93.1193 265.445C123.257 263.299 160.966 258.791 203.305 252.173C228.323 248.265 254.957 243.629 282.59 238.302C287.056 237.429 291.558 236.539 296.079 235.648C314.725 231.939 332.88 228.103 350.382 224.213L350.418 202.869L350.527 163.328V154.929L344.155 162.783L343.392 163.71L343.265 163.874L342.793 164.437L305.357 210.378C296.479 211.978 287.492 213.686 278.432 215.486C259.568 219.231 241.213 223.231 223.494 227.394L263.545 178.272C265.778 177.799 268.011 177.345 270.244 176.89C270.553 176.818 270.861 176.763 271.17 176.709C273.584 176.199 275.999 175.727 278.432 175.236C286.311 173.672 294.136 172.182 301.889 170.746C292.811 172.364 283.588 174.091 274.274 175.89C270.97 176.527 267.648 177.181 264.325 177.836C264.162 177.872 263.98 177.908 263.817 177.945Z" stroke="white" stroke-width="0.9" stroke-miterlimit="10"/>
</svg>
