<svg width="55" height="55" viewBox="0 0 55 55" fill="none" xmlns="http://www.w3.org/2000/svg">
<path d="M41.2498 4.58334H13.7498C11.2221 4.58334 9.1665 6.63897 9.1665 9.16668V48.125C9.1665 48.7328 9.40795 49.3157 9.83772 49.7455C10.2675 50.1752 10.8504 50.4167 11.4582 50.4167H43.5415C44.1493 50.4167 44.7322 50.1752 45.162 49.7455C45.5917 49.3157 45.8332 48.7328 45.8332 48.125V9.16668C45.8332 6.63897 43.7775 4.58334 41.2498 4.58334ZM41.2498 45.8333H13.7498V9.16668H41.2498V45.8333Z" fill="white"/>
<path d="M18.3335 13.75H25.2085V18.3333H18.3335V13.75ZM29.7918 13.75H36.6668V18.3333H29.7918V13.75ZM18.3335 22.9167H25.2085V27.5H18.3335V22.9167ZM29.7918 22.9877H36.6668V27.5H29.7918V22.9877ZM18.3335 32.0833H25.2085V36.6667H18.3335V32.0833ZM29.7918 32.0833H36.6668V36.6667H29.7918V32.0833Z" fill="white"/>
</svg>
