<svg width="39" height="39" viewBox="0 0 39 39" fill="none" xmlns="http://www.w3.org/2000/svg">
<circle cx="19.5" cy="19.5" r="19.5" fill="#D9D9D9"/>
<path d="M13.7333 27.3333C12.7884 27.3333 11.8676 27.1631 10.9707 26.8227C10.0738 26.4831 9.28267 25.9924 8.59733 25.3507C7.70133 24.4884 7.04444 23.4507 6.62667 22.2373C6.20889 21.024 6 19.7782 6 18.5C6 17.1773 6.31111 16.0964 6.93333 15.2573C7.55556 14.4191 8.464 14 9.65867 14C9.86756 14 10.0764 14.0191 10.2853 14.0573C10.4951 14.0964 10.7018 14.1542 10.9053 14.2307L19.3333 17.4027L27.7613 14.2307C27.9649 14.1542 28.1716 14.0964 28.3813 14.0573C28.5902 14.0191 28.7991 14 29.008 14C30.2027 14 31.1111 14.4191 31.7333 15.2573C32.3556 16.0964 32.6667 17.1773 32.6667 18.5C32.6667 19.7782 32.4578 21.024 32.04 22.2373C31.6222 23.4498 30.9653 24.4876 30.0693 25.3507C29.384 25.9924 28.5929 26.4831 27.696 26.8227C26.7991 27.1631 25.8782 27.3333 24.9333 27.3333C23.7067 27.3333 22.6031 27 21.6227 26.3333L20.1533 25.3333H18.5133L17.044 26.3333C16.0636 27 14.96 27.3333 13.7333 27.3333ZM14.9667 23.0267C15.5089 23.0267 15.9431 22.9022 16.2693 22.6533C16.5956 22.4044 16.7587 22.0756 16.7587 21.6667C16.7418 20.8853 16.1898 20.1298 15.1027 19.4C14.0156 18.6711 12.8813 18.3067 11.7 18.3067C11.1578 18.3067 10.728 18.4311 10.4107 18.68C10.0924 18.9289 9.93333 19.2578 9.93333 19.6667C9.95111 20.4649 10.4991 21.2244 11.5773 21.9453C12.6556 22.6653 13.7853 23.0253 14.9667 23.0253M23.7 23.0253C24.8813 23.0253 26.0156 22.6609 27.1027 21.932C28.1898 21.2031 28.7418 20.448 28.7587 19.6667C28.7587 19.2533 28.5969 18.9236 28.2733 18.6773C27.9489 18.4311 27.5133 18.308 26.9667 18.308C25.8022 18.3249 24.6764 18.6938 23.5893 19.4147C22.5022 20.1347 21.9502 20.8853 21.9333 21.6667C21.9333 22.0756 22.0911 22.4044 22.4067 22.6533C22.7222 22.9022 23.1533 23.0267 23.7 23.0267" fill="black"/>
</svg>
