<svg width="100" height="100" viewBox="0 0 100 100" fill="none" xmlns="http://www.w3.org/2000/svg">
<path d="M65.9458 78.2832C66.7236 78.2832 67.3861 78.0109 67.9333 77.4665C68.4778 76.9221 68.75 76.2596 68.75 75.479C68.75 74.7012 68.4778 74.0387 67.9333 73.4915C67.3889 72.9471 66.7264 72.6748 65.9458 72.6748C65.1681 72.6748 64.5056 72.9471 63.9583 73.4915C63.4139 74.0387 63.1417 74.7012 63.1417 75.479C63.1417 76.2596 63.4139 76.9221 63.9583 77.4665C64.5028 78.0109 65.1653 78.2832 65.9458 78.2832ZM75 78.2832C75.7778 78.2832 76.4403 78.0109 76.9875 77.4665C77.5319 76.9221 77.8042 76.2596 77.8042 75.479C77.8042 74.7012 77.5319 74.0387 76.9875 73.4915C76.4431 72.9471 75.7806 72.6748 75 72.6748C74.2222 72.6748 73.5597 72.9471 73.0125 73.4915C72.4681 74.0387 72.1958 74.7012 72.1958 75.479C72.1958 76.2596 72.4681 76.9221 73.0125 77.4665C73.5569 78.0109 74.2194 78.2832 75 78.2832ZM84.0542 78.2832C84.8319 78.2832 85.4944 78.0109 86.0417 77.4665C86.5861 76.9221 86.8583 76.2596 86.8583 75.479C86.8583 74.7012 86.5861 74.0387 86.0417 73.4915C85.4972 72.9471 84.8347 72.6748 84.0542 72.6748C83.2764 72.6748 82.6139 72.9471 82.0667 73.4915C81.5222 74.0387 81.25 74.7012 81.25 75.479C81.25 76.2596 81.5222 76.9221 82.0667 77.4665C82.6111 78.0109 83.2736 78.2832 84.0542 78.2832ZM23.3958 83.3332C21.5347 83.3332 19.9472 82.6776 18.6333 81.3665C17.3222 80.0554 16.6667 78.4679 16.6667 76.604V23.3957C16.6667 21.5346 17.3222 19.9471 18.6333 18.6332C19.9444 17.3221 21.5319 16.6665 23.3958 16.6665H76.6042C78.4653 16.6665 80.0528 17.3221 81.3667 18.6332C82.6778 19.9443 83.3333 21.5318 83.3333 23.3957V48.1873C82.6028 47.9373 81.9028 47.7332 81.2333 47.5748C80.5667 47.4193 79.8778 47.2637 79.1667 47.1082V23.3998C79.1667 22.7582 78.9 22.1693 78.3667 21.6332C77.8306 21.0998 77.2431 20.8332 76.6042 20.8332H23.3958C22.7569 20.8332 22.1694 21.0998 21.6333 21.6332C21.1 22.1693 20.8333 22.7568 20.8333 23.3957V76.604C20.8333 77.2429 21.1 77.8304 21.6333 78.3665C22.1694 78.8998 22.7569 79.1665 23.3958 79.1665H47.0042C47.1042 79.9443 47.2333 80.6679 47.3917 81.3373C47.55 82.004 47.7542 82.6693 48.0042 83.3332H23.3958ZM20.8333 74.9998V79.1665V20.8332V47.1082V46.7957V74.9998ZM31.25 67.7915H47.75C47.9028 67.0776 48.1111 66.3873 48.375 65.7207L49.2083 63.6207H31.25V67.7873V67.7915ZM31.25 52.0832H58.6667C60.0361 51.1221 61.3833 50.3068 62.7083 49.6373C64.0389 48.9707 65.4653 48.4484 66.9875 48.0707V47.9165H31.25V52.0832ZM31.25 36.3748H68.75V32.2082H31.25V36.3748ZM75 92.1498C70.3583 92.1498 66.4194 90.5332 63.1833 87.2998C59.9472 84.0665 58.3306 80.1262 58.3333 75.479C58.3333 70.8401 59.95 66.9026 63.1833 63.6665C66.4167 60.4304 70.3556 58.8123 75 58.8123C79.6417 58.8123 83.5806 60.4304 86.8167 63.6665C90.0528 66.9026 91.6694 70.8401 91.6667 75.479C91.6667 80.1234 90.05 84.0623 86.8167 87.2957C83.5778 90.529 79.6389 92.1498 75 92.1498Z" fill="white"/>
</svg>
