<svg width="39" height="39" viewBox="0 0 39 39" fill="none" xmlns="http://www.w3.org/2000/svg">
<circle cx="19.5" cy="19.5" r="19.5" fill="#D9D9D9"/>
<path d="M17.4166 10.125H15.3333V12.2083H13.2499V14.2917H15.3333V12.2083H17.4166V14.2917H19.4999V16.375H17.4166V18.4583H15.3333V20.5417H13.2499V22.625H11.1666V20.5417H9.08325V22.625H11.1666V24.7083H13.2499V22.625H17.4166V24.7083H19.4999V26.7917H17.4166V28.875H19.4999V26.7917H21.5833V24.7083H19.4999V20.5417H21.5833V18.4583H23.6666V20.5417H25.7499V22.625H27.8333V20.5417H29.9166V18.4583H27.8333V20.5417H25.7499V18.4583H23.6666V16.375H25.7499V12.2083H21.5833V14.2917H19.4999V12.2083H17.4166V10.125Z" fill="black"/>
</svg>
